<mxfile host="7fc7c740-ba48-4453-a9d4-371611aceaf3" modified="2020-09-16T09:20:24.113Z" agent="5.0 (Macintosh; Intel Mac OS X 10_15_6) AppleWebKit/537.36 (KHTML, like Gecko) Code/1.49.0 Chrome/83.0.4103.122 Electron/9.2.1 Safari/537.36" etag="8mCZWrlE0a25NxwS1QG-" version="13.1.3" pages="3">
    <diagram id="C5RBs43oDa-KdzZeNtuy" name="landing page">
        <mxGraphModel dx="1570" dy="1920" grid="1" gridSize="10" guides="1" tooltips="1" connect="1" arrows="0" fold="1" page="1" pageScale="1" pageWidth="827" pageHeight="1169" math="0" shadow="0">
            <root>
                <mxCell id="WIyWlLk6GJQsqaUBKTNV-0"/>
                <mxCell id="WIyWlLk6GJQsqaUBKTNV-1" parent="WIyWlLk6GJQsqaUBKTNV-0"/>
                <mxCell id="apGVH1ezdcMPIbnVbpum-5" value="" style="rounded=0;whiteSpace=wrap;html=1;" vertex="1" parent="WIyWlLk6GJQsqaUBKTNV-1">
                    <mxGeometry x="-70" y="-90" width="1170" height="810" as="geometry"/>
                </mxCell>
                <mxCell id="0" value="Eat first? (input field)" style="rounded=1;whiteSpace=wrap;html=1;" parent="WIyWlLk6GJQsqaUBKTNV-1" vertex="1">
                    <mxGeometry x="210" y="421" width="200" height="80" as="geometry"/>
                </mxCell>
                <mxCell id="2" value="Visit first? (input field)" style="rounded=1;whiteSpace=wrap;html=1;" parent="WIyWlLk6GJQsqaUBKTNV-1" vertex="1">
                    <mxGeometry x="210" y="330" width="200" height="70" as="geometry"/>
                </mxCell>
                <mxCell id="3" value="Dashboard" style="rounded=1;whiteSpace=wrap;html=1;" parent="WIyWlLk6GJQsqaUBKTNV-1" vertex="1">
                    <mxGeometry x="200" y="190" width="480" height="120" as="geometry"/>
                </mxCell>
                <mxCell id="4" value="5 interesting facts about _____" style="rounded=1;whiteSpace=wrap;html=1;" parent="WIyWlLk6GJQsqaUBKTNV-1" vertex="1">
                    <mxGeometry x="440" y="331" width="240" height="170" as="geometry"/>
                </mxCell>
                <mxCell id="5" value="Copyright - &quot;Jetsetters&quot; 2020" style="rounded=1;whiteSpace=wrap;html=1;" parent="WIyWlLk6GJQsqaUBKTNV-1" vertex="1">
                    <mxGeometry x="210" y="530" width="480" height="80" as="geometry"/>
                </mxCell>
                <mxCell id="x-hUcFMEJqy4ng-f8Lzy-6" value="&lt;font style=&quot;font-size: 20px&quot;&gt;WELCOME TO&amp;nbsp; &amp;nbsp; &amp;nbsp; &amp;nbsp; &amp;nbsp; &amp;nbsp; &amp;nbsp; &amp;nbsp; &amp;nbsp; &amp;nbsp; &amp;nbsp; &amp;nbsp; !&lt;/font&gt;" style="rounded=1;whiteSpace=wrap;html=1;align=center;" parent="WIyWlLk6GJQsqaUBKTNV-1" vertex="1">
                    <mxGeometry x="199" y="80" width="480" height="90" as="geometry"/>
                </mxCell>
                <mxCell id="x-hUcFMEJqy4ng-f8Lzy-11" value="" style="rounded=1;whiteSpace=wrap;html=1;" parent="WIyWlLk6GJQsqaUBKTNV-1" vertex="1">
                    <mxGeometry x="442" y="107.5" width="120" height="35" as="geometry"/>
                </mxCell>
                <mxCell id="x-hUcFMEJqy4ng-f8Lzy-12" value="" style="rounded=1;whiteSpace=wrap;html=1;" parent="WIyWlLk6GJQsqaUBKTNV-1" vertex="1">
                    <mxGeometry x="541" y="200" width="120" height="100" as="geometry"/>
                </mxCell>
                <mxCell id="x-hUcFMEJqy4ng-f8Lzy-13" value="" style="rounded=1;whiteSpace=wrap;html=1;" parent="WIyWlLk6GJQsqaUBKTNV-1" vertex="1">
                    <mxGeometry x="280" y="240" width="120" height="50" as="geometry"/>
                </mxCell>
                <mxCell id="x-hUcFMEJqy4ng-f8Lzy-14" value="" style="rounded=1;whiteSpace=wrap;html=1;" parent="WIyWlLk6GJQsqaUBKTNV-1" vertex="1">
                    <mxGeometry x="410" y="240" width="120" height="50" as="geometry"/>
                </mxCell>
                <mxCell id="apGVH1ezdcMPIbnVbpum-6" value="Untitled Layer" parent="WIyWlLk6GJQsqaUBKTNV-0"/>
            </root>
        </mxGraphModel>
    </diagram>
    <diagram id="ed0OFRexhbaLdUf6Vvwg" name="restaurant feature">
        <mxGraphModel dx="867" dy="877" grid="1" gridSize="10" guides="1" tooltips="1" connect="1" arrows="1" fold="1" page="1" pageScale="1" pageWidth="850" pageHeight="1100" math="0" shadow="0">
            <root>
                <mxCell id="CacVxIBobrgAGopvokDC-0"/>
                <mxCell id="CacVxIBobrgAGopvokDC-1" parent="CacVxIBobrgAGopvokDC-0"/>
                <mxCell id="tMPUyMS7A4wOXr7scdlx-0" value="Dashboard" style="rounded=1;whiteSpace=wrap;html=1;" parent="CacVxIBobrgAGopvokDC-1" vertex="1">
                    <mxGeometry x="200" y="40" width="480" height="120" as="geometry"/>
                </mxCell>
                <mxCell id="0Yr9kUJJIRX3ji6AL5Pu-0" value="Copyright - &quot;Jetsetters&quot; 2020" style="rounded=1;whiteSpace=wrap;html=1;" parent="CacVxIBobrgAGopvokDC-1" vertex="1">
                    <mxGeometry x="200" y="660" width="480" height="80" as="geometry"/>
                </mxCell>
                <mxCell id="0Yr9kUJJIRX3ji6AL5Pu-1" value="1" style="rounded=1;whiteSpace=wrap;html=1;" parent="CacVxIBobrgAGopvokDC-1" vertex="1">
                    <mxGeometry x="200" y="200" width="480" height="80" as="geometry"/>
                </mxCell>
                <mxCell id="18Dfi9kJevj3MQFud8fL-0" value="2" style="rounded=1;whiteSpace=wrap;html=1;" parent="CacVxIBobrgAGopvokDC-1" vertex="1">
                    <mxGeometry x="200" y="290" width="480" height="80" as="geometry"/>
                </mxCell>
                <mxCell id="18Dfi9kJevj3MQFud8fL-1" value="3" style="rounded=1;whiteSpace=wrap;html=1;" parent="CacVxIBobrgAGopvokDC-1" vertex="1">
                    <mxGeometry x="200" y="380" width="480" height="80" as="geometry"/>
                </mxCell>
                <mxCell id="18Dfi9kJevj3MQFud8fL-2" value="4" style="rounded=1;whiteSpace=wrap;html=1;" parent="CacVxIBobrgAGopvokDC-1" vertex="1">
                    <mxGeometry x="200" y="470" width="480" height="80" as="geometry"/>
                </mxCell>
            </root>
        </mxGraphModel>
    </diagram>
    <diagram id="5ceva2USdCUCt89baVWT" name="places feature">
        <mxGraphModel dx="520" dy="526" grid="1" gridSize="10" guides="1" tooltips="1" connect="1" arrows="1" fold="1" page="1" pageScale="1" pageWidth="850" pageHeight="1100" math="0" shadow="0">
            <root>
                <mxCell id="X1RJJ4iagltsqVj5EJ_X-0"/>
                <mxCell id="X1RJJ4iagltsqVj5EJ_X-1" parent="X1RJJ4iagltsqVj5EJ_X-0"/>
            </root>
        </mxGraphModel>
    </diagram>
</mxfile>